<?xml version="1.0" encoding="UTF-8" standalone="no"?>
<!-- Created with Inkscape (http://www.inkscape.org/) -->

<svg
   xmlns:dc="http://purl.org/dc/elements/1.1/"
   xmlns:cc="http://creativecommons.org/ns#"
   xmlns:rdf="http://www.w3.org/1999/02/22-rdf-syntax-ns#"
   xmlns:svg="http://www.w3.org/2000/svg"
   xmlns="http://www.w3.org/2000/svg"
   xmlns:sodipodi="http://sodipodi.sourceforge.net/DTD/sodipodi-0.dtd"
   xmlns:inkscape="http://www.inkscape.org/namespaces/inkscape"
   width="18"
   height="18"
   id="svg5232"
   version="1.1"
   inkscape:version="0.48.2 r9819"
   sodipodi:docname="ic_menu_scan_include.svg"
   inkscape:export-filename="C:\Users\Akshay\Desktop\GCIk\ic_menu_scan_include\res\holo_light\drawable-xhdpi\ic_menu_scan_include.png"
   inkscape:export-xdpi="240"
   inkscape:export-ydpi="240">
  <defs
     id="defs5234" />
  <sodipodi:namedview
     id="base"
     pagecolor="#ffffff"
     bordercolor="#666666"
     borderopacity="1.0"
     inkscape:pageopacity="0.0"
     inkscape:pageshadow="2"
     inkscape:zoom="31.678384"
     inkscape:cx="6.8733619"
     inkscape:cy="9.2885434"
     inkscape:document-units="px"
     inkscape:current-layer="layer1"
     showgrid="true"
     inkscape:window-width="1680"
     inkscape:window-height="988"
     inkscape:window-x="-6"
     inkscape:window-y="-6"
     inkscape:window-maximized="1">
    <inkscape:grid
       type="xygrid"
       id="grid2987" />
  </sodipodi:namedview>
  <metadata
     id="metadata5237">
    <rdf:RDF>
      <cc:Work
         rdf:about="">
        <dc:format>image/svg+xml</dc:format>
        <dc:type
           rdf:resource="http://purl.org/dc/dcmitype/StillImage" />
        <dc:title></dc:title>
      </cc:Work>
    </rdf:RDF>
  </metadata>
  <g
     inkscape:label="Layer 1"
     inkscape:groupmode="layer"
     id="layer1"
     transform="translate(0,-1034.3622)">
    <path
       style="opacity:0.6;fill:#333333;fill-opacity:1;stroke:#333333;stroke-width:0;stroke-linecap:round;stroke-linejoin:miter;stroke-miterlimit:4;stroke-opacity:1;stroke-dasharray:none"
       d="m 14,1045.3622 0,3 -3,0 0,1 3,0 0,3 1,0 0,-3 3,0 0,-1 -3,0 0,-3 -1,0 z"
       id="rect4319"
       inkscape:connector-curvature="0" />
    <g
       id="layer1-5"
       inkscape:label="Layer 1"
       transform="matrix(1.3369137,0,0,1.3369137,-4.723334,-352.66725)"
       style="fill:#ff2020;fill-opacity:1;stroke:#808080;stroke-opacity:1">
      <path
         inkscape:connector-curvature="0"
         id="rect5754-0-8"
         d="m 8.9401808,1039.3912 c -1.1821779,-1.1822 -2.9115475,-1.1101 -3.9111844,-0.1105 -0.9996368,0.9996 -1.0716924,2.729 0.1104855,3.9112 0.9786623,0.9787 2.3295433,1.1049 3.3366601,0.5524 l 3.33666,3.867 1.414214,-1.4142 -3.7786022,-3.3809 c 0.6044912,-1.014 0.4966182,-2.4202 -0.508233,-3.425 z m -0.7954951,0.7955 c 0.4838807,0.4839 0.5716958,1.4612 -0.088388,2.1213 -0.6600841,0.6601 -1.6374396,0.5723 -2.1213203,0.088 -0.4838807,-0.4839 -0.5495987,-1.4391 0.1104854,-2.0992 0.6600842,-0.6601 1.6153426,-0.5944 2.0992233,-0.1105 z"
         style="opacity:0.6;fill:#333333;fill-opacity:1;stroke:#808080;stroke-width:0;stroke-linecap:round;stroke-linejoin:miter;stroke-miterlimit:4;stroke-opacity:1" />
    </g>
  </g>
</svg>
